PathFileType	4	(X/Y/Z)	OpenSim_Sub06_CSStiffKnee_Accel.trc
DataRate	CameraRate	NumFrames	NumMarkers	Units	OrigDataRate	OrigDataStartFrame	OrigNumFrames
100	100	17	8	m	100	1	7164
Frame#	Time	torso_imu_offset_imu	pelvis_imu_offset_imu	tibia_r_imu_offset_imu	femur_r_imu_offset_imu	tibia_l_imu_offset_imu	femur_l_imu_offset_imu	toes_r_imu_offset_imu	toes_l_imu_offset_imu
				X1	Y1	Z1	X2	Y2	Z2	X3	Y3	Z3	X4	Y4	Z4	X5	Y5	Z5	X6	Y6	Z6	X7	Y7	Z7	X8		Y8	Z8	

1	0	9.11767587	0.32243747	6.42545194	8.52698524	-0.28849123	5.36294986	9.71353133	1.39991171	1.85746618	9.47966642	-0.92031641	-0.11108802	9.62123744	-0.25402312	2.29400607	9.77389737	0.18518552	-1.11566535	4.55221695	-2.17732421	8.63409124	4.52093049	0.72116229	11.41713662
2	0.01000000	9.12560091	0.29783097	6.38195125	8.53268772	-0.27694483	5.39250893	9.69418292	1.37387732	1.83157843	9.51071401	-0.91961758	-0.09801112	9.61293212	-0.24755490	2.27145190	9.75407282	0.15476619	-1.11770423	4.55363977	-2.17985731	8.65182184	4.50265899	0.72582108	11.43764800
3	0.02000000	9.13793828	0.28280113	6.38975152	8.55615671	-0.26253176	5.37931285	9.73425063	1.37761594	1.82811462	9.52127462	-0.92353101	-0.11069529	9.59125813	-0.26597377	2.24945584	9.76479032	0.18265098	-1.10803052	4.56008380	-2.14571391	8.65076961	4.52591667	0.72275640	11.43884630
4	0.03000000	9.12999262	0.25972541	6.39646591	8.57741831	-0.26511989	5.35959811	9.75833282	1.34310257	1.86547576	9.49648434	-0.92102527	-0.12823578	9.60001041	-0.23391632	2.21404849	9.74869729	0.18574019	-1.09846212	4.56166523	-2.16935812	8.65594282	4.53062245	0.73863928	11.44027893
5	0.04000000	9.16505391	0.27499615	6.40429273	8.56898331	-0.25035759	5.37722072	9.71274985	1.33630657	1.85252840	9.51214841	-0.92324485	-0.09077717	9.63978077	-0.23033861	2.24529223	9.73027552	0.19704217	-1.14238494	4.53185077	-2.17619847	8.63852122	4.52392251	0.74911869	11.43835089
6	0.05000000	9.15242757	0.27753031	6.38632999	8.55334953	-0.24394816	5.39486430	9.68437259	1.38737572	1.87392439	9.50528939	-0.92600053	-0.09932900	9.63557018	-0.22525442	2.16636884	9.74685884	0.22689764	-1.12439388	4.55499905	-2.15963377	8.62808117	4.51793043	0.76210174	11.43899841
7	0.06000000	9.14023226	0.25449357	6.38153907	8.56123693	-0.27082620	5.36683150	9.66473189	1.40499381	1.86469394	9.45061000	-0.90918219	-0.08408194	9.64347860	-0.21237674	2.15989091	9.78838164	0.20800703	-1.14362956	4.56273912	-2.15081049	8.61439094	4.52301936	0.74314668	11.43495218
8	0.07000000	9.17005378	0.21439498	6.35237303	8.55629268	-0.24696750	5.38835019	9.72070140	1.40604029	1.87303123	9.48291972	-0.87842640	-0.07083135	9.64486699	-0.21155716	2.17294045	9.75641503	0.21347134	-1.14931224	4.56325753	-2.15402457	8.63502065	4.51849928	0.75880721	11.41027719
9	0.08000000	9.12262527	0.20423644	6.34996225	8.52595490	-0.28420308	5.38447308	9.69927308	1.40109684	1.87132256	9.49014847	-0.87492056	-0.11013218	9.59144004	-0.18970422	2.18196481	9.75615891	0.23236675	-1.09352733	4.55825538	-2.17355976	8.64878649	4.52383153	0.73800603	11.42757446
10	0.09000000	9.12508995	0.23008179	6.37862152	8.54625852	-0.28165559	5.36989136	9.69734727	1.38030999	1.81120351	9.50230048	-0.90024914	-0.08854429	9.59604966	-0.22039958	2.17844578	9.76339906	0.16716256	-1.15564903	4.53752178	-2.17342983	8.62364924	4.50123909	0.76592754	11.43409537
11	0.10000000	9.12791077	0.19301030	6.36867867	8.55186717	-0.27135448	5.36229467	9.73309242	1.38258367	1.80886877	9.46710120	-0.90255669	-0.11737419	9.61562517	-0.20789868	2.18477671	9.77775963	0.17116396	-1.13869450	4.54788841	-2.16375168	8.63921051	4.51567022	0.72946990	11.41518047
12	0.11000000	9.10288991	0.21847492	6.37216029	8.51001889	-0.25914211	5.36174423	9.69936070	1.39828564	1.78382400	9.47212690	-0.88769548	-0.11642435	9.58125676	-0.19580626	2.19390421	9.75739339	0.18480708	-1.12414111	4.58316846	-2.20076180	8.59969313	4.52860973	0.72176723	11.43090164
13	0.12000000	9.06831359	0.19178630	6.42950685	8.50211133	-0.23184983	5.36435077	9.71017526	1.41801413	1.79144516	9.50072657	-0.89448529	-0.08014506	9.59410924	-0.21770563	2.19889497	9.72990910	0.19692497	-1.12544145	4.56956609	-2.18439884	8.64572546	4.50382920	0.74526996	11.44752239
14	0.13000000	9.08758058	0.14561449	6.37062250	8.53024071	-0.22556774	5.33549992	9.68453841	1.42292835	1.81013796	9.48536330	-0.89296611	-0.09752298	9.60313706	-0.22730267	2.24029542	9.73395418	0.21599712	-1.11565548	4.51840393	-2.20339719	8.62553208	4.53777179	0.72640799	11.44441085
15	0.14000000	9.11959688	0.12587925	6.34990729	8.51679334	-0.18035335	5.34501474	9.66810550	1.45368686	1.81382502	9.50346341	-0.89590694	-0.12427519	9.59282755	-0.23570179	2.20521760	9.75171029	0.24426081	-1.17106695	4.55588708	-2.19600750	8.63183513	4.50627534	0.70515015	11.42445051
16	0.15000000	9.15010337	0.11916699	6.41699227	8.52919406	-0.19449368	5.33974897	9.70411538	1.43249389	1.82383304	9.48282474	-0.89918336	-0.11941206	9.61747331	-0.26034670	2.19888480	9.73242039	0.25592045	-1.13887190	4.54809653	-2.17922567	8.65579913	4.55296224	0.74458603	11.42553388
17	0.16000000	9.13053503	0.10915879	6.41765804	8.53351794	-0.20333827	5.35889195	9.72803441	1.42672352	1.80372238	9.51354486	-0.92067910	-0.08988030	9.58729606	-0.28375717	2.19087712	9.72061146	0.26035104	-1.09073884	4.55375008	-2.16647784	8.66229294	4.55282190	0.74350451	11.40288844
